<svg xmlns="http://www.w3.org/2000/svg" width="256" height="256" stroke="#000" stroke-linecap="round" stroke-linejoin="round" fill="#fff" fill-rule="evenodd">
    <path d="M108.6829 244.757c-.0519 2.9967 1.7153 5.2694-.6263 8.4199-8.6098-10.9938-12.1538-23.7121-11.8757-36.4756.2092-9.5706-.9036-18.5913-2.7294-27.7299-4.3913-21.9789.2349-42.515 11.6235-64.5213-29.9086 21.4697-37.3837 50.9943-42.6871 82.314.072-32.4006-5.6634-64.3737-1.8983-97.8446-16.8975 22.6847-17.8271 47.9567-17.5289 73.7532-8.4618-14.6695-10.0436-30.4182-7.1483-46.2614 7.5726-41.4307 36.211-64.9061 72.4621-80.1669 21.4541-9.0318 27.3739-27.4515 33.5889-46.4892.6989-2.1405.5496-4.558.8907-7.7552 7.7968 4.63 9.4183 11.4478 7.808 18.3569-5.9217 25.4027 4.5114 44.6249 23.7843 58.8936 16.7746 12.4194 28.2633 26.1017 27.9172 48.1813-.1326 8.4714 7.9662 13.8372 13.3856 19.5037 6.5318 6.8295 6.3607 11.9956.2865 18.7961-10.3708 11.6101-24.2155 18.9531-35.2367 29.8606-5.9886 5.9274-14.7968 1.7814-22.2442-.0316-11.8236-2.8791-15.2935.0353-15.5156 12.0894-.2058 11.1358 7.2416 19.1273 11.3355 28.8807-12.776-2.8775-24.4634-15.816-39.3265-43.4538-9.4785 16.6741-9.9069 33.5179-6.2653 51.6801m79.5203-132.1362c-3.1418-8.5599-8.9543-14.798-16.4769-19.811-10.7765-7.1812-19.9102-16.046-26.0561-27.633-2.6068-4.914-5.0236-9.9285-8.1273-16.0901-4.8656 7.1152-7.7845 13.4168-8.358 20.5738-.7813 9.7506-2.1241 20.1517 3.2407 28.6115 4.6356 7.3112 13.7293 2.4555 20.7235 3.7838 14.4392 2.7423 26.6799 7.9954 32.4167 23.4945-9.4707 3.6506-17.2829 2.2346-23.2932-5.0504-5.1504-6.2432-11.877-7.0473-19.047-7.0925-7.8106-.05-11.0837 3.9993-9.7689 11.6091 1.8893 10.9349 6.6544 20.3527 14.8754 27.9947 2.0561 1.9101 5.5318 3.0352 4.997 6.8987-22.973 9.0349-30.0108 19.9287-21.6029 34.8433 5.2406-12.0102 14.7978-14.0826 26.0546-11.8417 3.6145.7189 7.1328 1.9149 10.7073 2.8455 3.9228 1.0212 7.356.9467 8.5119-3.8416-4.1346-7.3509-13.762-9.3524-17.4177-18.0595 8.5705-1.524 14.6247 2.3568 21.0131 5.0603 6.9355 2.9352 18.9669-.2677 18.0497-4.9783-1.4651-7.5288 4.6877-16.1665-3.3313-22.7159-4.6853-3.8265-6.7968-8.7654-5.1896-15.221.9657-3.8775.0646-8.0414-1.921-13.3802m-75.8579-5.1763c3.1455-1.6278 8.1038-2.2096 6.9358-7.1825-2.515-10.7061-3.2949-21.5674-2.9681-32.7415-29.1528 7.3474-51.4551 49.8665-44.0301 70.6448 10.4032-13.4502 23.0351-23.7663 40.0624-30.7208m17.1289 49.9707c1.5556-1.5738 2.2131-3.328 1.0018-5.4007-4.5088-7.7173-7.1804-16.2138-9.5894-25.4298-14.3468 16.7054-20.2116 39.9806-13.8173 54.4316 5.9917-8.9476 13.3014-16.2048 22.4049-23.6011z" fill="#e0e0e0" fill-rule="nonzero" stroke="#e0e0e0" stroke-linecap="butt" stroke-linejoin="miter" stroke-width="4"/>
</svg>